<svg width="68" height="68" viewBox="0 0 68 68" fill="none" xmlns="http://www.w3.org/2000/svg">
<rect width="56" height="56" rx="28" fill="#F9D15C"/>
<g clip-path="url(#clip0_18_71)">
<path d="M39.8906 63.0233C41.884 63.0233 43.5 61.4073 43.5 59.4139C43.5 57.4205 41.884 55.8046 39.8906 55.8046C37.8972 55.8046 36.2812 57.4205 36.2812 59.4139C36.2812 61.4073 37.8972 63.0233 39.8906 63.0233Z" fill="#222222"/>
<path d="M67.4127 28.9382C60.2235 21.2248 50.4884 16.9767 39.9996 16.9766C29.5116 16.9767 19.7765 21.2248 12.5872 28.9382C11.7636 29.822 11.8123 31.2062 12.696 32.0299C13.5799 32.8535 14.964 32.805 15.7877 31.9211C22.1402 25.1053 30.7388 21.3517 40.0004 21.3516C49.2611 21.3517 57.8597 25.1053 64.2122 31.9211C64.643 32.3833 65.2272 32.6172 65.8129 32.6172C66.347 32.6172 66.8824 32.4227 67.3039 32.0299C68.1877 31.2061 68.2364 29.822 67.4127 28.9382Z" fill="#222222"/>
<path d="M59.3808 37.9719C54.0666 32.6176 47.1837 29.669 40 29.6692C32.8146 29.6693 25.9316 32.618 20.6191 37.9721C19.7681 38.8298 19.7735 40.2148 20.6311 41.0657C21.4887 41.9166 22.8737 41.9113 23.7247 41.0537C28.2096 36.5336 33.9896 34.0443 40 34.0442C46.0088 34.044 51.7888 36.5334 56.2754 41.0539C56.703 41.4847 57.2654 41.7004 57.8281 41.7004C58.385 41.7004 58.9424 41.4889 59.3692 41.0655C60.2266 40.2144 60.2318 38.8294 59.3808 37.9719Z" fill="#222222"/>
<path d="M50.6261 47.0318C47.7802 44.2122 43.7008 42.4608 39.9797 42.4608C39.9793 42.4608 39.9785 42.4608 39.9781 42.4608H39.8204C39.8198 42.4608 39.8195 42.4608 39.8188 42.4608C36.0975 42.4608 32.0178 44.2123 29.172 47.0318C28.3139 47.8821 28.3074 49.2671 29.1577 50.1254C29.5855 50.5571 30.1485 50.7733 30.7117 50.7733C31.2681 50.7733 31.8247 50.5623 32.2511 50.1398C34.2771 48.1326 37.2474 46.8358 39.819 46.8358C39.8193 46.8358 39.8198 46.8358 39.8201 46.8358H39.9784C39.9788 46.8358 39.9789 46.8358 39.9794 46.8358C42.5507 46.8358 45.5212 48.1327 47.5469 50.1398C48.4051 50.99 49.7903 50.9839 50.6405 50.1254C51.4909 49.2672 51.4844 47.8821 50.6261 47.0318Z" fill="#222222"/>
</g>
<defs>
<clipPath id="clip0_18_71">
<rect width="56" height="56" fill="white" transform="translate(12 12)"/>
</clipPath>
</defs>
</svg>
