<svg width="68" height="68" viewBox="0 0 68 68" fill="none" xmlns="http://www.w3.org/2000/svg">
<rect width="56" height="56" rx="28" fill="#F9D15C"/>
<path d="M41.5782 22.7401H35.0728C34.1531 22.7401 33.4321 23.4924 33.4321 24.3807V47.7443C33.4321 48.6504 34.1667 49.385 35.0728 49.385C35.9788 49.385 36.7134 48.6504 36.7134 47.7443V39.2276C38.2359 39.2191 40.464 39.2078 41.5783 39.2078C43.7773 39.2078 45.8624 38.3568 47.4494 36.8115C49.0562 35.247 49.9412 33.1738 49.9412 30.974C49.9412 28.7741 49.0562 26.7009 47.4494 25.1363C45.8623 23.5912 43.7773 22.7401 41.5782 22.7401ZM41.5782 35.9266C40.4704 35.9266 38.2739 35.9376 36.7493 35.9462C36.7215 30.8364 36.7374 32.5547 36.7183 26.0214H41.5782C44.3328 26.0214 46.6598 28.2894 46.6598 30.974C46.6598 33.6586 44.3328 35.9266 41.5782 35.9266Z" fill="#222222"/>
<path d="M57.0147 19.0477C52.4701 14.5029 46.4273 12 39.9999 12C33.5725 12 27.5298 14.5029 22.9851 19.0477C9.77314 32.2596 16.0483 55.0346 34.3124 59.4475V65.2656C34.3124 66.7734 35.539 68 37.0468 68H42.953C44.4608 68 45.6874 66.7734 45.6874 65.2656V59.4475C63.9691 55.0303 70.2175 32.2503 57.0147 19.0477ZM42.4061 64.7188H37.5936V60.0059C39.1894 60.1643 40.8104 60.1643 42.4061 60.0059V64.7188ZM43.7522 56.5062C31.1029 58.8145 19.2187 49.1677 19.2187 36.0625C19.2187 24.6037 28.541 15.2812 39.9999 15.2812C51.4588 15.2812 60.7811 24.6037 60.7811 36.0625C60.7811 46.094 53.6371 54.7024 43.7522 56.5062Z" fill="#222222"/>
</svg>
