<svg width="68" height="68" viewBox="0 0 68 68" fill="none" xmlns="http://www.w3.org/2000/svg">
<rect width="56" height="56" rx="28" fill="#F9D15C"/>
<path d="M64.5303 18.8388H29.1253C27.212 18.8388 25.6554 20.3953 25.6554 22.3087V25.3966L22.2999 22.041L16.6151 27.7258L19.1955 30.3061L12 41.6084L19.3067 53.0293H16.5477C14.4063 53.0293 12.6641 54.7714 12.6641 56.9129V61.161H32.0241V56.9129C32.0241 54.7714 30.282 53.0293 28.1405 53.0293H23.2543L15.9447 41.6041L20.7657 34.0315C20.6036 36.3864 21.4183 38.7966 23.2146 40.5929L24.5944 41.9729L25.6554 40.9119V48.3067C25.6554 50.22 27.2119 51.7765 29.1253 51.7765H39.0493L38.4629 57.836H35.7186V61.1612H38.1411H55.5142H57.9367V57.836H55.1924L54.6061 51.7765H64.53C66.4433 51.7765 67.9999 50.22 67.9999 48.3067V22.3088C68.0001 20.3954 66.4435 18.8388 64.5303 18.8388ZM28.1404 56.3545C28.4483 56.3545 28.6987 56.605 28.6987 56.9129V57.8359H15.9894V56.9129C15.9894 56.605 16.2398 56.3545 16.5477 56.3545H28.1404ZM23.5937 28.2862C23.5634 28.313 23.5329 28.3392 23.5029 28.3666C23.4068 28.4541 23.3122 28.5433 23.2199 28.6357C23.2182 28.6374 23.2164 28.6389 23.2146 28.6407C23.2127 28.6424 23.2113 28.6442 23.2095 28.646C23.1174 28.7384 23.0282 28.8329 22.9408 28.9288C22.9131 28.9592 22.8863 28.9901 22.8592 29.0209C22.8206 29.0644 22.7811 29.1073 22.7435 29.1517L21.3178 27.726L22.2999 26.7438L23.7256 28.1695C23.6808 28.2073 23.6375 28.2472 23.5937 28.2862ZM24.7274 37.1378C23.9019 35.6768 23.8506 33.8942 24.5718 32.3927C24.5768 32.3823 24.5819 32.3719 24.5869 32.3616C24.6122 32.3099 24.6384 32.2585 24.6655 32.2073C24.6728 32.1936 24.6803 32.1802 24.6877 32.1666C24.7139 32.1184 24.7407 32.0704 24.7687 32.023C24.778 32.0071 24.7876 31.9915 24.7971 31.9756C24.8241 31.9306 24.8517 31.8856 24.8802 31.8413C24.8918 31.8234 24.904 31.8057 24.9158 31.7878C24.9434 31.7461 24.9712 31.7044 25.0002 31.6634C25.015 31.6426 25.0305 31.622 25.0455 31.6015C25.0729 31.5638 25.1002 31.5263 25.1286 31.4893C25.1481 31.464 25.1686 31.4394 25.1886 31.4144C25.2141 31.3826 25.2391 31.3506 25.2655 31.3193C25.2932 31.2861 25.3223 31.254 25.3511 31.2215C25.3711 31.1989 25.3906 31.1758 25.411 31.1535C25.4614 31.0986 25.5129 31.0448 25.5658 30.9918C25.6248 30.9329 25.685 30.8759 25.7463 30.8203C25.7639 30.8042 25.782 30.789 25.7999 30.7732C25.8445 30.7337 25.8896 30.6945 25.9353 30.657C25.955 30.6407 25.9752 30.6251 25.9951 30.6091C26.0408 30.5727 26.0868 30.5367 26.1335 30.502C26.1524 30.4878 26.1716 30.474 26.1909 30.4601C26.2407 30.4242 26.291 30.389 26.3417 30.355C26.358 30.3441 26.3743 30.3332 26.3908 30.3224C26.4477 30.2854 26.5052 30.2495 26.5632 30.2148C26.574 30.2083 26.5849 30.2016 26.5957 30.1952C27.024 29.944 27.4811 29.7602 27.9517 29.6438C27.9593 29.6419 27.9668 29.6398 27.9744 29.6379C28.0483 29.6199 28.1227 29.6038 28.1973 29.5892C28.2035 29.588 28.2096 29.5866 28.216 29.5852C28.2921 29.5706 28.3684 29.5579 28.4451 29.5466C28.4496 29.546 28.4541 29.5452 28.4586 29.5446C28.536 29.5335 28.6139 29.5242 28.6916 29.5167C28.6955 29.5163 28.6993 29.5159 28.7031 29.5155C28.7807 29.5081 28.8583 29.5026 28.9361 29.4988C28.9409 29.4986 28.9455 29.4983 28.9503 29.4981C29.026 29.4946 29.1018 29.4928 29.1776 29.4926C29.1846 29.4926 29.1916 29.4925 29.1987 29.4925C29.4129 29.4928 29.6269 29.5064 29.8396 29.5332C29.8443 29.5337 29.8489 29.5346 29.8536 29.5352C29.9461 29.5471 30.0382 29.5623 30.1299 29.5792C30.1568 29.5843 30.1837 29.5896 30.2106 29.5951C30.2816 29.6094 30.3522 29.6256 30.4226 29.6429C30.4538 29.6507 30.4852 29.6578 30.5161 29.6661C30.5997 29.6884 30.6828 29.7129 30.7655 29.7394C30.8087 29.7534 30.8515 29.7688 30.8945 29.7839C30.9488 29.8029 31.003 29.8223 31.0568 29.8432C31.1036 29.8614 31.15 29.8809 31.1963 29.9005C31.2394 29.9187 31.2822 29.9378 31.325 29.9571C31.3725 29.9789 31.4201 30.0005 31.4669 30.0238C31.5118 30.046 31.5561 30.0699 31.6004 30.0934C31.6377 30.1132 31.6753 30.1321 31.712 30.1528L28.22 33.6448L24.7274 37.1378ZM41.8038 57.8359L42.3901 51.7764H51.2656L51.8518 57.8359H41.8038ZM64.6749 48.3066C64.6749 48.3863 64.6099 48.4513 64.5302 48.4513H54.2846H39.371H29.1253C29.0455 48.4513 28.9806 48.3864 28.9806 48.3066V45.2103H64.675V48.3066H64.6749ZM64.6749 41.885H28.9806V37.5866L36.5468 30.0205L35.1668 28.6406C34.3271 27.8009 33.3528 27.1764 32.3131 26.7646C32.3041 26.7611 32.295 26.7579 32.2859 26.7544C32.1679 26.708 32.049 26.6641 31.9294 26.6233C31.8944 26.6113 31.8587 26.6007 31.8236 26.5892C31.7306 26.5588 31.6376 26.5291 31.5436 26.502C31.4838 26.4847 31.4234 26.4694 31.3632 26.4534C31.2943 26.4352 31.2254 26.4165 31.1562 26.4001C31.0743 26.3806 30.9919 26.3635 30.9094 26.3462C30.862 26.3365 30.8148 26.3261 30.7673 26.3171C30.6668 26.2981 30.5659 26.2817 30.4646 26.2661C30.4352 26.2617 30.4061 26.2569 30.3767 26.2527C30.2615 26.2363 30.1459 26.2227 30.03 26.2112C30.0146 26.2097 29.9994 26.2081 29.9842 26.2065C29.858 26.1946 29.7314 26.1856 29.6045 26.1794C29.5996 26.1792 29.5948 26.1789 29.5898 26.1786C29.387 26.169 29.1839 26.1639 28.9802 26.1689V22.3088C28.9802 22.229 29.0451 22.1641 29.1249 22.1641H64.5299C64.6097 22.1641 64.6746 22.2291 64.6746 22.3088V41.885H64.6749Z" fill="#222222"/>
</svg>
