<svg width="68" height="68" viewBox="0 0 68 68" fill="none" xmlns="http://www.w3.org/2000/svg">
<rect width="56" height="56" rx="28" fill="#F9D15C"/>
<path d="M26.7656 21.9531H53.2344C54.139 21.9531 54.875 22.6891 54.875 23.5938C54.875 24.4984 54.139 25.2344 53.2344 25.2344H43.2812C40.5673 25.2344 38.3594 27.4423 38.3594 30.1562V31.7969H41.6406V30.1562C41.6406 29.2516 42.3766 28.5156 43.2812 28.5156H53.2344C55.9483 28.5156 58.1562 26.3077 58.1562 23.5938C58.1562 20.8798 55.9483 18.6719 53.2344 18.6719H26.7656C25.861 18.6719 25.125 17.9359 25.125 17.0312V15.3906H21.8438V17.0312C21.8438 19.7452 24.0517 21.9531 26.7656 21.9531Z" fill="#222222"/>
<path d="M56.2635 51.4844H61.4375C65.0561 51.4844 68 48.5404 68 44.9219C68 41.3033 65.0561 38.3594 61.4375 38.3594H58.1562V35.0781H21.8438V43.3906C21.8438 47.5977 23.2676 51.5758 25.8414 54.7656H12V58.0469H19.1892L22.4705 64.6094H57.5296L60.8109 58.0469H68V54.7656H54.1586C54.981 53.7465 55.6849 52.6463 56.2635 51.4844ZM61.4375 41.6406C63.2468 41.6406 64.7188 43.1126 64.7188 44.9219C64.7188 46.7312 63.2468 48.2031 61.4375 48.2031H57.5136C57.9354 46.6566 58.1562 45.0415 58.1562 43.3906V41.6406H61.4375ZM25.125 43.3906V38.3594H54.875V43.3906C54.875 47.814 52.953 51.9282 49.5837 54.7656H30.4163C27.047 51.9282 25.125 47.814 25.125 43.3906ZM55.5016 61.3281H24.4984L22.8578 58.0469H57.1423L55.5016 61.3281Z" fill="#222222"/>
</svg>
