<svg width="150" height="100" viewBox="0 0 150 100" fill="none" xmlns="http://www.w3.org/2000/svg">
<path d="M34.2761 37.9497V62.0497H41.4165V43.3055L34.2761 37.9497ZM31.448 40.0642V62.0497H32.9327V38.9368L31.448 40.0642ZM28.62 62.0497H30.1045V41.1211L28.62 42.1779V62.0497ZM25.7918 62.0497H27.2765V43.2354L25.7918 44.3628V62.0497ZM42.7598 48.7315V62.0497H49.9016V54.0869L42.7598 48.7315ZM22.9636 50.8456V62.0497H24.4485V49.7885L22.9636 50.8456ZM20.1356 62.0497H21.6203V51.9027L20.1356 52.9599V62.0497ZM17.3076 62.0497H18.7923V54.0165L17.3076 55.144V62.0497Z" fill="#EB0029"/>
<path d="M68.2827 51.3388C66.1637 51.3388 64.8202 50.141 64.8202 47.8155V43.3055H66.586V47.8155C66.586 49.0836 67.2232 49.7885 68.3542 49.7885C69.4137 49.7885 70.0508 49.0838 70.0508 47.8155V43.3055H71.819V47.7451C71.819 50.2114 70.404 51.3388 68.2827 51.3388ZM77.0494 51.3388C75.8492 51.3388 74.6466 50.9161 73.7279 50.0707L74.7182 48.8726C75.4245 49.4363 76.2023 49.7885 77.1211 49.7885C77.8274 49.7885 78.2519 49.5067 78.2519 49.0838V49.0134C78.2519 48.5907 77.9705 48.3791 76.627 48.0269C75.0713 47.6042 74.0095 47.1108 74.0095 45.5607C74.0095 44.0807 75.1403 43.1648 76.7679 43.1648C77.9705 43.1648 78.9584 43.5171 79.7363 44.1511L78.8175 45.4901C78.1829 44.9967 77.4741 44.7149 76.7679 44.7149C76.1308 44.7149 75.7776 44.9967 75.7776 45.4194C75.7776 45.9128 76.1308 46.1243 77.4741 46.4766C79.1017 46.8993 80.0203 47.4633 80.0203 48.8726C80.0203 50.493 78.8175 51.3388 77.0494 51.3388ZM87.372 51.2685V48.0269H84.1197V51.2687H82.3538V43.3059H84.1197V46.4063H87.372V43.3055H89.1401V51.2684L87.372 51.2685ZM117.774 51.2685L114.028 46.2654V51.2685H112.331V43.3057H113.956L117.705 48.3791V43.3055H119.402V51.2684L117.774 51.2685ZM83.4849 62.0498L81.0104 58.6674L80.0918 59.6539V62.0498H78.3237V54.087H80.0918V57.6103L83.3441 54.087H85.4631L82.2108 57.4695L85.6062 62.0498H83.4849ZM87.5842 62.0498V54.087H93.5235V55.6373H89.2809V57.2582H93.0296V58.8081H89.2809V60.4995H93.5952V62.0498H87.5842ZM104.552 62.0498H106.249V54.0871H104.552V62.0498ZM108.867 62.0498V54.087H114.806V55.6373H110.635V57.2582H114.309V58.8081H110.635V60.4995H114.875V62.0498H108.867ZM117.493 62.0498V54.087H119.258V60.4995H123.22V62.0498H117.493ZM128.45 62.0498H125.338V54.087H128.45C130.996 54.087 132.693 55.8488 132.693 58.0331V58.1036C132.693 60.3586 130.996 62.0498 128.45 62.0498ZM130.855 58.1036C130.855 56.6942 129.865 55.7077 128.45 55.7077H127.107V60.4995H128.45C129.865 60.4995 130.855 59.513 130.855 58.1036ZM59.659 49.7885C58.1723 49.7885 57.1846 48.6613 57.1846 47.3222V47.2517C57.1846 45.9128 58.1031 44.7854 59.5158 44.7854C60.2936 44.7149 61.0025 45.0674 61.4964 45.631L62.6274 44.292C61.8495 43.5875 60.79 43.0942 59.5158 43.1648C57.0413 43.1648 55.2757 45.0674 55.3447 47.3222C55.4164 49.6476 57.1846 51.4093 59.659 51.3388C60.9308 51.3388 62.0618 50.7752 62.7681 49.9294L61.5679 48.802C61.1432 49.3658 60.4369 49.7179 59.659 49.7883V49.7885ZM98.0478 43.3055H99.9566V51.2684H98.2602V46.054L95.998 49.4364H95.9288L93.6644 46.054V51.2687H92.0393V43.3059H93.8767L95.998 46.6178L98.0478 43.3055ZM105.261 43.3055L101.866 51.2684H103.705L104.412 49.4363H107.805L108.513 51.2685H110.351L106.958 43.3057L105.261 43.3055ZM105.049 47.886L106.108 45.3492L107.17 47.886H105.049ZM71.3226 54.0868L67.9295 62.0498H69.6977L70.4755 60.2881H73.7994L74.5749 62.0498H76.3431L72.95 54.087L71.3226 54.0868ZM71.0411 58.7378L72.1004 56.1306L73.1624 58.7378H71.0411ZM97.8377 55.7077V57.3989H101.584V59.0196H97.8377V62.0498H96.0695V54.087H102.149V55.7077H97.8377ZM66.0206 54.0868L64.1831 59.6539L62.3459 54.087H60.6468L58.8096 59.6539L56.9721 54.087H55.0632L57.9601 62.0498H59.7282L61.4964 56.6238L63.3335 62.0498H65.0303L67.9295 54.087L66.0206 54.0868ZM130.571 49.2952L131.49 48.2384L130.431 47.1108L129.581 48.0269L128.591 46.829C129.228 46.4766 129.653 45.7719 129.653 45.0674C129.581 43.94 128.734 43.1648 127.603 43.1648C127.038 43.1648 126.541 43.3762 126.188 43.7284C125.835 44.0807 125.623 44.5738 125.623 45.1378C125.694 45.7719 126.047 46.2654 126.329 46.6177C125.41 46.9699 124.704 47.9566 124.773 48.9431C124.844 50.2817 125.976 51.4093 127.39 51.4093C128.168 51.4093 129.016 50.9865 129.581 50.3525L130.29 51.2684H132.339L130.571 49.2952ZM128.662 49.2247C128.238 49.7179 127.815 49.9294 127.391 49.9294C126.825 49.9294 126.329 49.5067 126.329 48.8726C126.259 48.52 126.541 48.0269 127.319 47.6744L128.662 49.2247ZM127.672 45.9128C127.46 45.7014 127.178 45.4196 127.107 45.1378C127.107 44.856 127.247 44.5738 127.672 44.5036C128.025 44.5036 128.238 44.7854 128.238 45.1376C128.238 45.4899 127.884 45.7717 127.672 45.9128Z" fill="#717271"/>
</svg>
