<svg width="150" height="100" viewBox="0 0 150 100" fill="none" xmlns="http://www.w3.org/2000/svg">
<path d="M84.3626 40.7019C84.3626 41.9258 84.0518 43.345 83.1533 44.6016H85.693V24.9889H77.575V33.0008C81.9649 34.3619 84.3626 37.1753 84.3626 40.7019Z" fill="#213E99"/>
<path d="M70.3295 32.3029C72.1596 32.3029 73.8654 32.7315 75.1692 33.0763C72.4078 32.5899 68.1256 33.2934 65.9144 35.0376V44.6015H74.0357V33.7205C75.4292 33.9722 76.7552 34.5103 77.9301 35.3007V44.6015H79.6948C78.0367 46.476 74.9298 47.6171 72.2528 47.1973V47.5905C79.9697 48.1996 83.2396 44.5365 83.2396 40.4181C83.2396 35.5663 78.6897 32.7283 74.0357 32.1519V24.9888H65.9144V32.2318C60.6565 33.2857 55.5093 36.4079 55.5093 41.5843C55.5093 49.5502 66.6369 54.4847 76.3304 54.4847C91.0505 54.4847 102.376 47.3729 102.376 37.3819C102.376 25.2932 86.0215 16.6665 73.1768 16.6665C58.4571 16.6665 47.6188 26.0177 47.6188 36.0087C47.6188 41.1794 50.5251 45.5149 54.1865 48.5366L54.463 48.3505C51.5641 45.9412 48.9476 42.1865 48.9476 37.0259C49.7129 26.0944 63.1866 19.9364 75.1776 19.9364C83.6558 19.9364 98.8901 21.8965 98.8901 36.0753C98.8901 43.4693 90.988 53.0865 74.3881 53.0865C65.8886 53.0865 59.287 48.5366 59.287 41.9911C59.2874 36.3292 63.7218 32.3029 70.3295 32.3029ZM38.8824 82.9372V81.8195H41.7293V72.1607H34.1266V81.8195H37.0462V82.9372H26.5627V81.8195H29.2268V62.1479H26.5627V61.0302H37.0462V62.1479H34.1266V70.8658H41.7293V62.1479H38.8824V61.0302H49.2605V62.1479H46.5924V81.8195H49.2605V82.9372H38.8824ZM53.2799 61.0302H58.0369V63.6261H53.2799V61.0302ZM50.94 82.9372V81.8195H53.4971V68.3471H50.94V67.2298H58.2169V81.8195H60.5968V82.9372H50.94ZM61.6213 82.9372V81.8195H64.251V59.2651H61.6213V58.1506H69.0063V81.8195H71.4912V82.9372H61.6213ZM78.8936 82.9372C76.3006 82.9372 74.8971 81.604 74.8971 79.549V68.3471H72.3368V67.2294H74.8971V60.9975C76.3393 60.9975 77.8498 61.0302 79.3279 60.9975V67.2294H83.0027V68.3471H79.3279V81.8195H83.0766V82.9372H78.8936ZM101.374 74.721C100.978 68.7757 96.0081 66.724 92.5816 66.724C88.7296 66.724 83.5411 69.1366 83.5411 74.9725C83.5411 79.1914 86.6395 83.3332 92.6914 83.3332C98.1313 83.3332 100.369 79.6939 100.907 78.2158C101.338 77.1364 101.448 75.8742 101.374 74.721ZM92.5816 82.4318C90.9258 82.4318 89.9179 81.604 89.4477 80.7022C89.1611 80.1613 88.7651 79.3718 88.7651 74.9019C88.7651 71.5875 88.8361 67.7678 92.546 67.7678C94.0242 67.7678 95.1391 68.3802 95.7538 69.7518C95.9694 70.2543 96.2236 70.7597 96.2563 74.7565C96.2919 78.4345 96.2919 82.4318 92.5816 82.4318ZM114.072 82.9372V81.8195H116.162V72.5603C116.162 70.4698 116.162 68.4181 113.856 68.4181C112.558 68.4181 110.433 69.713 109.927 71.8414C109.747 72.4889 109.782 73.1751 109.782 74.9014V81.8195H112.16V82.9372H102.507V81.8195H105.064V68.3471H102.507V67.2294H109.782V69.6064C110.575 68.5985 111.225 67.874 112.774 67.2649C113.676 66.8858 114.643 66.6898 115.621 66.6885C115.908 66.6885 116.772 66.6885 117.779 66.9751C120.807 67.874 120.952 70.1828 120.952 71.8414V81.8195H123.437V82.9372H114.072Z" fill="#213E99"/>
</svg>
