<svg width="150" height="100" viewBox="0 0 150 100" fill="none" xmlns="http://www.w3.org/2000/svg">
<path d="M129.724 45.578C129.617 45.578 129.532 45.4885 129.532 45.3846V44.0866H129.161C129.07 44.0866 128.993 44.0101 128.993 43.9177C128.993 43.8225 129.071 43.7476 129.161 43.7476H130.285C130.374 43.7476 130.452 43.8225 130.452 43.9177C130.452 44.0101 130.374 44.0866 130.285 44.0866H129.913V45.3846C129.913 45.4885 129.828 45.578 129.724 45.578H129.724ZM132.5 45.578C132.397 45.578 132.311 45.4885 132.311 45.3846V44.2553L131.828 45.5072C131.812 45.5481 131.772 45.5779 131.726 45.5779C131.681 45.5779 131.641 45.5493 131.625 45.5072L131.142 44.2553V45.3846C131.142 45.4885 131.059 45.578 130.956 45.578C130.849 45.578 130.762 45.4885 130.762 45.3846V44.0433C130.762 43.8687 130.902 43.7277 131.072 43.7277C131.207 43.7277 131.318 43.8127 131.364 43.9325L131.726 44.8772L132.092 43.9325C132.134 43.8127 132.249 43.7277 132.381 43.7277C132.554 43.7277 132.692 43.8691 132.692 44.0433V45.3847C132.692 45.4886 132.607 45.5781 132.5 45.5781L132.5 45.578ZM30.9549 43.1766C30.9549 42.5275 31.1569 41.9261 31.4987 41.427C30.4703 41.73 29.7145 42.6703 29.7145 43.7967V45.7814L30.9549 45.8435V43.1766ZM29.7143 56.8238C29.7143 57.9503 30.47 58.8907 31.4999 59.1936C31.1566 58.6945 30.9547 58.0931 30.9547 57.444V53.7215H29.7143L29.7143 56.8238ZM32.816 53.7222H31.5755V57.4448C31.5755 58.5712 32.3313 59.5116 33.3597 59.8145C33.0178 59.3154 32.816 58.714 32.816 58.0649V53.7222ZM32.816 42.5561C32.816 41.9071 33.0179 41.3056 33.3597 40.8066C32.3313 41.1095 31.5755 42.0499 31.5755 43.1763V45.8748L32.816 45.937V42.5561ZM18.8293 41.7616C17.922 42.3023 17.3076 43.2845 17.3076 44.4167V56.2033C17.3076 57.337 17.922 58.3178 18.8293 58.8586C18.6433 58.4101 18.5478 57.9293 18.548 57.4437V43.1764C18.548 42.676 18.649 42.1985 18.8293 41.7615L18.8293 41.7616ZM20.4092 41.9359C20.4092 41.4355 20.5102 40.958 20.6905 40.521C19.7833 41.0619 19.1688 42.0426 19.1688 43.1763V57.445C19.1688 58.7778 20.014 59.9042 21.1953 60.3426C20.7049 59.7124 20.4092 58.9234 20.4092 58.0652V41.9359Z" fill="#EE2841"/>
<path d="M35.9178 40.0747C34.5476 40.0747 33.437 41.1853 33.437 42.5555V46.5881L27.2337 46.2782V41.9354C27.2337 40.2234 25.8447 38.8345 24.1313 38.8345C22.4178 38.8345 21.0303 40.2234 21.0303 41.9354V58.0648C21.0303 59.7783 22.4178 61.1658 24.1313 61.1658C25.8447 61.1658 27.2337 59.7783 27.2337 58.0648V53.1019H33.437V58.0648C33.437 59.435 34.5476 60.5456 35.9178 60.5456C37.288 60.5456 38.3986 59.435 38.3986 58.0648V42.5556C38.3986 41.1854 37.288 40.0749 35.9178 40.0749V40.0747ZM57.3367 55.1823V50.5886H50.6357V55.1823C50.6357 55.6727 50.2361 56.0895 49.7458 56.0895C49.2381 56.0895 48.8198 55.6727 48.8198 55.1823V44.704C48.8198 44.2136 49.2381 43.7967 49.7285 43.7967C50.2361 43.7967 50.6357 44.2136 50.6357 44.704V48.9717H57.3367V44.704C57.3367 44.2136 57.7362 43.7967 58.2453 43.7967C58.753 43.7967 59.1525 44.2136 59.1525 44.704V55.1823C59.1525 55.6727 58.753 56.0895 58.2453 56.0895C57.7362 56.0895 57.3367 55.6727 57.3367 55.1823ZM60.4358 51.6047C60.4358 49.0806 62.1435 47.0109 64.8666 47.0109C67.6084 47.0109 69.2974 49.0806 69.2974 51.6047C69.2974 54.1475 67.6084 56.2171 64.8666 56.2171C62.1435 56.2171 60.4358 54.1475 60.4358 51.6047V51.6047ZM67.5911 51.6047C67.5911 49.9518 66.6276 48.4633 64.8666 48.4633C63.1229 48.4633 62.1435 49.9518 62.1435 51.6047C62.1435 53.2749 63.1228 54.7648 64.8666 54.7648C66.6276 54.7648 67.5911 53.2749 67.5911 51.6047ZM78.797 47.0106C81.4307 47.0106 83.0648 49.063 83.0648 51.3693C83.0648 51.8597 82.7187 52.1496 82.1013 52.1496H76.1273C76.2543 53.638 77.3446 54.8741 79.1057 54.8741C79.8499 54.8741 80.6316 54.6374 81.285 54.1645C81.3759 54.0926 81.5028 54.075 81.6485 54.075C82.0119 54.075 82.3018 54.3648 82.3018 54.7283C82.3018 54.9634 82.1923 55.1452 82.012 55.2735C81.1393 55.9081 80.1038 56.2168 78.9427 56.2168C76.3278 56.2168 74.4023 54.3648 74.4023 51.6043C74.4023 49.0629 76.2369 47.0105 78.797 47.0105V47.0106ZM76.11 50.9696H81.4667C81.4308 49.8072 80.649 48.3548 78.797 48.3548C77.036 48.3548 76.1994 49.7711 76.11 50.9696ZM84.1048 55.2729V44.6128C84.1048 44.1599 84.4682 43.7964 84.9226 43.7964C85.3581 43.7964 85.7389 44.1599 85.7389 44.6128V55.2729C85.7389 55.7272 85.3581 56.0906 84.9226 56.0906C84.815 56.0911 84.7085 56.0703 84.6091 56.0293C84.5097 55.9884 84.4193 55.9282 84.3433 55.8521C84.2673 55.7761 84.2071 55.6858 84.1661 55.5864C84.1252 55.4869 84.1043 55.3804 84.1048 55.2729ZM86.79 54.6555C86.79 54.256 87.0986 53.9473 87.4981 53.9473C87.6438 53.9473 87.788 54.0021 87.8976 54.074C88.5698 54.5644 89.4409 54.9091 90.3669 54.9091C91.6015 54.9091 92.2549 54.4014 92.2549 53.6558C92.2549 52.7846 91.2568 52.4947 90.1303 52.2409C88.6419 51.8946 86.8996 51.4952 86.8996 49.6072C86.8996 48.2096 88.0967 47.0111 90.24 47.0111C91.4573 47.0111 92.4193 47.3729 93.1635 47.9183C93.3265 48.045 93.4534 48.227 93.4534 48.4635C93.4534 48.8253 93.1448 49.1341 92.7828 49.1341C92.6558 49.1341 92.5101 49.0806 92.4193 49.0074C91.8568 48.5906 91.0938 48.3367 90.2587 48.3367C89.151 48.3367 88.4602 48.7723 88.4602 49.4805C88.4602 50.2435 89.4049 50.4973 90.4938 50.7512C92.0198 51.0958 93.8356 51.5141 93.8356 53.529C93.8356 55.0362 92.601 56.2175 90.2948 56.2175C89.0775 56.2175 87.9885 55.9088 87.0986 55.2367C86.9169 55.11 86.79 54.8921 86.79 54.6555ZM95.9796 53.9291C96.5969 53.9291 97.1233 54.4382 97.1233 55.0555C97.1233 55.6729 96.5969 56.1993 95.9796 56.1993C95.3623 56.1993 94.8531 55.6729 94.8531 55.0555C94.8531 54.4382 95.3623 53.9291 95.9796 53.9291ZM105.608 51.6047C105.608 49.0806 107.314 47.0109 110.039 47.0109C112.781 47.0109 114.47 49.0806 114.47 51.6047C114.47 54.1475 112.781 56.2171 110.039 56.2171C107.314 56.2171 105.608 54.1475 105.608 51.6047V51.6047ZM112.763 51.6047C112.763 49.9518 111.8 48.4633 110.039 48.4633C108.295 48.4633 107.314 49.9518 107.314 51.6047C107.314 53.2749 108.295 54.7648 110.039 54.7648C111.8 54.7648 112.763 53.2749 112.763 51.6047ZM127.991 49.6616V55.2737C127.991 55.7265 127.609 56.09 127.156 56.09C126.72 56.09 126.357 55.7265 126.357 55.2737V50.152C126.357 49.1352 125.902 48.6448 124.831 48.6448C123.941 48.6448 123.07 49.6457 122.651 50.2818V55.2737C122.652 55.381 122.631 55.4873 122.59 55.5866C122.549 55.6859 122.489 55.776 122.413 55.8519C122.337 55.9278 122.247 55.9879 122.148 56.0288C122.049 56.0697 121.942 56.0905 121.835 56.09C121.399 56.09 121.017 55.7265 121.017 55.2737V50.152C121.017 49.1352 120.582 48.6448 119.474 48.6448C118.62 48.6448 117.768 49.7063 117.331 50.3409V55.2736C117.331 55.7265 116.95 56.09 116.514 56.09C116.06 56.09 115.697 55.7265 115.697 55.2736V47.9553C115.697 47.501 116.06 47.1376 116.496 47.1376C116.95 47.1376 117.331 47.501 117.331 47.9553V48.463C117.694 47.9178 118.857 47.0106 120.163 47.0106C121.49 47.0106 122.271 47.7 122.543 48.6448C123.051 47.827 124.238 47.0106 125.527 47.0106C127.144 47.0106 127.991 47.9005 127.991 49.6616Z" fill="#EE2841"/>
<path d="M102.021 47.0104C103.275 47.0104 104.146 47.4099 104.818 48.0273C104.962 48.154 105.072 48.3719 105.072 48.5725C105.072 48.9893 104.744 49.3167 104.346 49.3167C104.146 49.3167 103.983 49.2431 103.855 49.1347C103.347 48.6631 102.784 48.4626 102.094 48.4626C100.369 48.4626 99.2608 49.7881 99.2608 51.604C99.2608 53.4198 100.37 54.7064 102.094 54.7641C103.257 54.805 104.43 53.9578 105.372 52.4709C105.489 52.2861 105.66 51.9429 105.802 51.7641C106.068 51.4268 106.259 51.5883 106.416 51.7518C106.705 52.0532 106.702 52.7687 106.514 53.1206C105.985 54.1086 105.539 54.5687 105.033 55.0634C104.328 55.7471 103.275 56.2158 102.021 56.2158C99.3704 56.2158 97.5546 54.237 97.5546 51.6033C97.5546 48.9711 99.3704 47.0095 102.021 47.0095V47.0104ZM75.5695 54.6544C75.5695 54.9631 74.6854 55.6539 74.0493 55.9626C73.6873 56.1384 73.3224 56.2165 72.796 56.2165C71.4157 56.2165 70.7075 55.4362 70.7075 54.0559V48.6631H69.8724C69.4917 48.6631 69.1455 48.3356 69.1455 47.9361C69.1455 47.5555 69.4917 47.228 69.8724 47.228H70.7075V45.5578C70.7071 45.4503 70.7279 45.3437 70.7689 45.2443C70.8098 45.1449 70.87 45.0546 70.9461 44.9785C71.0221 44.9025 71.1124 44.8423 71.2118 44.8013C71.3113 44.7604 71.4178 44.7396 71.5253 44.74C71.9609 44.74 72.3416 45.1035 72.3416 45.5578V47.228H73.4868C73.8849 47.228 74.2124 47.5555 74.2124 47.9361C74.2124 48.3356 73.8849 48.6631 73.4869 48.6631H72.3417V53.6925C72.3417 54.3098 72.633 54.7641 73.1955 54.7641C74.195 54.7641 74.9811 53.2121 75.4239 53.2121C75.8407 53.2121 75.5695 54.2549 75.5695 54.6545" fill="#EE2841"/>
</svg>
