<svg width="150" height="100" viewBox="0 0 150 100" fill="none" xmlns="http://www.w3.org/2000/svg">
<path d="M76.7442 51.7734L72.3666 40.7666L68.0143 51.7003C70.924 51.6051 73.8364 51.6295 76.7442 51.7734ZM113.076 62.933C103.694 58.8535 93.1438 55.8323 80.7468 54.8125L84.5217 63.9801H81.5998L77.8737 54.6156C74.2165 54.408 70.5513 54.3789 66.8913 54.5284L63.1295 63.9801H60.2058L64.0332 54.6793C50.8835 55.5417 39.6845 58.6576 29.8475 62.9302V62.3528C36.413 58.6886 42.9054 55.9532 49.9142 54.1666V48.5394L42.0214 36.4218H44.9535L51.2172 46.4903L57.4836 36.4228H60.413L52.5211 48.5394L52.5192 53.5498C56.5312 52.679 60.7232 52.1034 65.2068 51.8306L71.7123 36.0206H73.0162L79.5732 51.9562C83.9743 52.3078 88.0997 52.9555 92.0545 53.9032V38.53H85.6053V36.4218H101.172V38.5309H94.7252V54.5959C101.084 56.3723 107.052 58.9557 113.076 62.3584V62.933ZM123.505 36.4218H107.94V38.5309H114.39V57.5318H117.058V38.5309H123.505V36.4218ZM34.1539 57.5318L31.4851 57.5337V47.1174H19.9759V57.5318H17.3071V36.4218H19.9759V45.0111H31.4851V36.4218H34.1539V57.5318ZM130.546 38.066C130.418 37.991 130.212 37.9535 129.929 37.9535H129.494V39.0109H129.954C130.173 39.0109 130.332 38.9875 130.442 38.9453C130.534 38.9119 130.613 38.8497 130.667 38.7678C130.722 38.6859 130.748 38.5887 130.742 38.4907C130.742 38.2797 130.675 38.1391 130.546 38.066ZM129.996 37.6095C130.353 37.6095 130.618 37.6442 130.787 37.7117C131.087 37.8373 131.236 38.0847 131.236 38.4484C131.236 38.7062 131.142 38.8984 130.954 39.0221C130.825 39.0961 130.682 39.143 130.533 39.1599C130.765 39.1956 130.928 39.2902 131.035 39.4439C131.13 39.5761 131.184 39.7332 131.19 39.8958V40.1067C131.19 40.1751 131.192 40.2473 131.197 40.3214C131.197 40.3737 131.205 40.4256 131.222 40.4751L131.241 40.5107H130.765L130.757 40.4826C130.754 40.4723 130.754 40.4591 130.751 40.4479L130.739 40.3542V40.1236C130.739 39.7899 130.645 39.5686 130.464 39.4608C130.353 39.3999 130.168 39.3671 129.895 39.3671H129.494V40.5107H128.98V37.6095H129.996ZM128.442 37.4595C128.228 37.6688 128.058 37.9197 127.944 38.1968C127.83 38.4739 127.774 38.7713 127.779 39.0709C127.779 39.7036 127.998 40.2426 128.438 40.6897C128.646 40.9063 128.895 41.0776 129.172 41.1928C129.449 41.308 129.746 41.3646 130.046 41.3591C130.676 41.3591 131.212 41.1378 131.656 40.6897C132.097 40.2435 132.317 39.7036 132.317 39.0709C132.322 38.7714 132.266 38.4741 132.152 38.1969C132.039 37.9198 131.87 37.6686 131.656 37.4586C131.447 37.2441 131.197 37.0744 130.92 36.96C130.643 36.8456 130.346 36.7888 130.046 36.793C129.748 36.7887 129.451 36.8455 129.176 36.96C128.9 37.0744 128.651 37.2441 128.443 37.4586L128.442 37.4595ZM131.915 40.9409C131.674 41.1925 131.384 41.3914 131.062 41.5253C130.74 41.6592 130.394 41.7252 130.046 41.719C129.315 41.719 128.691 41.4612 128.176 40.9409C127.928 40.6967 127.733 40.4048 127.601 40.0829C127.47 39.761 127.405 39.4157 127.411 39.0681C127.411 38.3416 127.669 37.7182 128.185 37.2027C128.699 36.689 129.32 36.4312 130.046 36.4312C130.779 36.4312 131.401 36.6889 131.915 37.2036C132.166 37.4441 132.364 37.7339 132.498 38.0547C132.632 38.3756 132.697 38.7206 132.691 39.0681C132.691 39.7973 132.434 40.4216 131.915 40.9409Z" fill="#4B77A9"/>
</svg>
