<svg width="150" height="100" viewBox="0 0 150 100" fill="none" xmlns="http://www.w3.org/2000/svg">
<path d="M52.7182 76.0923V75.2225H49.5706V69.0516H48.5767V76.0923H52.7182Z" fill="#0E7755"/>
<path d="M114.925 69.8799V76.0923H115.919V69.8799H118.321V69.0516H112.523V69.8799H114.925Z" fill="#0E7755"/>
<path d="M120.35 74.5182C120.35 74.5182 121.096 75.2636 122.131 75.2636C122.794 75.2636 123.332 74.8909 123.332 74.2282C123.332 72.6959 119.936 73.0272 119.936 70.8736C119.936 69.7967 120.888 68.927 122.214 68.927C123.539 68.927 124.202 69.6311 124.202 69.6311L123.746 70.4594C123.746 70.4594 123.083 69.8382 122.214 69.8382C121.468 69.8382 120.93 70.2937 120.93 70.8736C120.93 72.3231 124.326 71.9504 124.326 74.2282C124.326 75.3051 123.498 76.2162 122.09 76.2162C120.599 76.2162 119.77 75.3051 119.77 75.3051L120.35 74.5182Z" fill="#0E7755"/>
<path d="M24.6382 40.9717H17.3076V61.9695H19.7097V53.8934H24.6382C28.5727 53.8934 31.1819 51.2842 31.1819 47.3911C31.1819 43.5395 28.5313 40.9717 24.6382 40.9717ZM19.7097 43.1667H24.3897C27.0818 43.1667 28.7384 44.7819 28.7384 47.3911C28.7384 50.0417 27.0818 51.6984 24.3483 51.6984H19.7097V43.1667Z" fill="#0E7755"/>
<path d="M42.323 40.9717L34.6196 61.9695H37.146L39.5067 55.3844H47.5414L49.9021 61.9695H52.4285L44.7665 40.9717H42.323ZM46.6716 53.3964L40.0865 53.1893L42.9856 46.0244C43.2341 45.4032 43.524 44.492 43.6897 43.8708C43.814 44.4506 44.0624 45.4032 44.2695 46.0244L46.6716 53.3964Z" fill="#0E7755"/>
<path d="M67.9591 52.7335C70.2784 51.988 71.7693 49.793 71.7693 47.0595C71.7693 44.5332 70.5683 42.4624 68.5389 41.5926C67.7106 41.2199 66.758 41.0128 64.6044 41.0128H58.3506V62.0107H60.7527V53.3133H65.6812L70.3612 62.0107H73.0946L68.4561 53.4376C68.2076 53.1063 68.0833 52.8578 67.9591 52.7335ZM69.3672 47.101C69.3672 49.5859 67.8762 51.1183 65.4741 51.1183H60.7527V43.1664H64.7286C66.3438 43.1664 67.0065 43.3321 67.5863 43.6634C68.746 44.2433 69.3672 45.4857 69.3672 47.101Z" fill="#0E7755"/>
<path d="M90.5724 40.9717L85.0227 49.9589H81.7923V40.9717H79.3901V61.9695H81.7923V52.1125H85.0227L90.9037 61.9695H93.72L87.0107 50.9529L93.3059 40.9717H90.5724Z" fill="#0E7755"/>
<path d="M18.3016 72.1165V69.0518H17.3076V76.0924H18.3016V72.9862H21.9462V76.0924H22.9402V69.0518H21.9462V72.1165H18.3016Z" fill="#0E7755"/>
<path d="M28.987 68.927C31.0163 68.927 32.5901 70.5008 32.5901 72.5302C32.5901 74.601 31.0163 76.2162 28.987 76.2162C26.9576 76.2162 25.3838 74.601 25.3838 72.5302C25.3838 70.5008 26.9576 68.927 28.987 68.927ZM28.987 75.3051C30.4365 75.3051 31.5962 74.104 31.5962 72.5302C31.5962 70.9978 30.4365 69.8382 28.987 69.8382C27.5374 69.8382 26.3778 70.9978 26.3778 72.5302C26.3778 74.104 27.5788 75.3051 28.987 75.3051Z" fill="#0E7755"/>
<path d="M36.4417 69.8801V76.0924H37.4357V69.8801H39.8792V69.0518H34.0396V69.8801H36.4417Z" fill="#0E7755"/>
<path d="M46.133 76.0924V75.2227H42.8612V72.9448H45.3875V72.1165H42.8612V69.8801H45.9674V69.0518H41.8672V76.0924H46.133Z" fill="#0E7755"/>
<path d="M54.8718 74.5182C54.8718 74.5182 55.6173 75.2636 56.6527 75.2636C57.3154 75.2636 57.8538 74.8909 57.8538 74.2282C57.8538 72.6959 54.4577 73.0272 54.4577 70.8736C54.4577 69.7967 55.4102 68.927 56.7355 68.927C58.0608 68.927 58.7235 69.6311 58.7235 69.6311L58.2679 70.4594C58.2679 70.4594 57.6053 69.8382 56.7355 69.8382C55.99 69.8382 55.4516 70.2937 55.4516 70.8736C55.4516 72.3231 58.8478 71.9504 58.8478 74.2282C58.8478 75.3051 58.0194 76.2162 56.6113 76.2162C55.1203 76.2162 54.292 75.3051 54.292 75.3051L54.8718 74.5182Z" fill="#0E7755"/>
<path d="M66.3025 72.282C66.3025 72.282 65.3914 71.9506 65.3914 70.7082C65.3914 69.5485 66.3025 68.8859 67.545 68.8859C67.9178 68.8859 68.4148 69.0101 68.4148 69.0101L68.1663 69.797C68.1663 69.797 67.8764 69.7556 67.6279 69.7556C66.9238 69.7556 66.3854 70.1283 66.3854 70.8324C66.3854 71.288 66.5925 71.9506 67.6693 71.9506H68.9946V70.9981H69.9472V71.9506H70.8997V72.8204H69.9472V73.7729C69.9472 75.3467 69.036 76.2579 67.5036 76.2579C66.054 76.2579 65.0601 75.3467 65.0601 74.1457C65.0601 73.3174 65.5156 72.5719 66.3025 72.282ZM67.5036 75.3053C68.4148 75.3053 68.9532 74.8083 68.9532 73.6901V72.7789H67.5864C66.5925 72.7789 66.0126 73.2345 66.0126 74.0214C66.054 74.7255 66.6339 75.3053 67.5036 75.3053Z" fill="#0E7755"/>
<path d="M76.2837 69.0518H78.4373C79.1828 69.0518 79.4727 69.0932 79.7626 69.2174C80.4667 69.4659 80.9637 70.2114 80.9637 71.1225C80.9637 72.0337 80.4667 72.7792 79.6798 73.0276C79.6798 73.0276 79.7626 73.1105 79.8869 73.359L81.3778 76.0924H80.2596L78.7686 73.2761H77.2777V76.0924H76.2837V69.0518ZM78.6858 72.4064C79.4727 72.4064 79.9283 71.9094 79.9283 71.1225C79.9283 70.5841 79.7212 70.2528 79.3485 70.0457C79.1414 69.9629 78.9343 69.8801 78.3959 69.8801H77.2777V72.4064H78.6858Z" fill="#0E7755"/>
<path d="M87.9216 76.0924V75.2227H84.6498V72.9448H87.1762V72.1165H84.6498V69.8801H87.756V69.0518H83.6558V76.0924H87.9216Z" fill="#0E7755"/>
<path d="M111.736 58.5732V54.2659L114.925 55.8397V60.147L111.736 58.5732ZM115.919 55.8397L119.108 54.2659V58.5732L115.919 60.147V55.8397ZM107.553 56.4609V52.1537L110.742 53.7275V58.0347L107.553 56.4609ZM120.102 53.7689L123.291 52.1951V56.5024L120.102 58.0762V53.7689ZM103.37 54.3901V50.0829L106.559 51.6567V55.9639L103.37 54.3901ZM124.285 51.6567L127.474 50.0829V54.3901L124.285 55.9639V51.6567ZM111.736 53.1477V48.8404L114.925 50.4142V54.7215L111.736 53.1477ZM115.919 50.4556L119.108 48.8818V53.1891L115.919 54.7629V50.4556ZM99.1868 52.2779V48.0121L102.376 49.5859V53.8932L99.1868 52.2779ZM128.509 49.5859L131.698 48.0121V52.3194L128.509 53.8932V49.5859ZM107.553 51.0769V46.7696L110.742 48.3434V52.6507L107.553 51.0769ZM120.102 48.3434L123.291 46.7696V51.0769L120.102 52.6507V48.3434ZM103.37 48.9647V44.6988L106.559 46.2726V50.5799L103.37 48.9647ZM124.285 46.2726L127.474 44.6988V49.0061L124.285 50.5799V46.2726ZM111.736 47.7636V43.4564L114.925 45.0302V49.3374L111.736 47.7636ZM115.919 45.0302L119.108 43.4564V47.7636L115.919 49.3374V45.0302ZM99.1868 46.8939V42.5866L102.376 44.1604V48.4677L99.1868 46.8939ZM128.509 44.2018L131.698 42.628V46.9353L128.509 48.5091V44.2018ZM107.553 45.6514V41.3441L110.742 42.9179V47.2252L107.553 45.6514ZM120.102 42.9594L123.291 41.3856V45.6928L120.102 47.2666V42.9594ZM103.37 43.5806V39.2734L106.559 40.8472V45.1544L103.37 43.5806ZM124.285 40.8472L127.474 39.2734V43.5806L124.285 45.1544V40.8472ZM111.736 42.3381V38.0309L114.925 39.6047V43.9119L111.736 42.3381ZM115.919 39.6461L119.108 38.0723V42.3795L115.919 43.9533V39.6461ZM107.553 40.2673V35.9601L110.742 37.5339V41.8411L107.553 40.2673ZM120.102 37.5339L123.291 35.9601V40.2673L120.102 41.8411V37.5339ZM103.37 38.1551V33.8479L106.559 35.4217V39.7289L103.37 38.1551ZM124.285 35.4631L127.474 33.8893V38.1965L124.285 39.7703V35.4631ZM111.736 36.9126V32.6468L114.925 34.2206V38.5279L111.736 36.9126ZM115.919 34.2206L119.108 32.6468V36.9541L115.919 38.5279V34.2206ZM107.553 34.8419V30.5346L110.742 32.1084V36.4157L107.553 34.8419ZM120.102 32.1498L123.291 30.576V34.8833L120.102 36.4571V32.1498ZM111.736 31.5286V27.2213L114.925 28.7951V33.1024L111.736 31.5286ZM115.919 28.8366L119.108 27.2627V31.57L115.919 33.1438V28.8366ZM112.357 26.4344L115.422 24.902L118.487 26.4344L115.422 27.9668L112.357 26.4344ZM115.422 23.7838L110.742 26.1031V31.0316L106.559 28.9608V34.3863L102.376 32.3155V43.125L98.1929 41.0542V52.982L114.966 61.348V66.4422H115.96V61.2652L132.734 52.8992V40.9714L128.551 43.0422V32.2741L124.368 34.3449V28.9608L120.185 31.0316V26.1031L115.422 23.7838Z" fill="#0E7755"/>
<path d="M90.4067 74.5182C90.4067 74.5182 91.1522 75.2636 92.1876 75.2636C92.8503 75.2636 93.3887 74.8909 93.3887 74.2282C93.3887 72.6959 89.9926 73.0272 89.9926 70.8736C89.9926 69.7967 90.9451 68.927 92.2705 68.927C93.5958 68.927 94.2585 69.6311 94.2585 69.6311L93.8029 70.4594C93.8029 70.4594 93.1402 69.8382 92.2705 69.8382C91.525 69.8382 90.9866 70.2937 90.9866 70.8736C90.9866 72.3231 94.3827 71.9504 94.3827 74.2282C94.3827 75.3051 93.5544 76.2162 92.1462 76.2162C90.6552 76.2162 89.8269 75.3051 89.8269 75.3051L90.4067 74.5182Z" fill="#0E7755"/>
<path d="M99.9738 68.927C102.003 68.927 103.577 70.5008 103.577 72.5302C103.577 74.601 102.003 76.2162 99.9738 76.2162C97.9444 76.2162 96.3706 74.601 96.3706 72.5302C96.3706 70.5008 97.9444 68.927 99.9738 68.927ZM99.9738 75.3051C101.423 75.3051 102.583 74.104 102.583 72.5302C102.583 70.9978 101.423 69.8382 99.9738 69.8382C98.5243 69.8382 97.3646 70.9978 97.3646 72.5302C97.3646 74.104 98.5243 75.3051 99.9738 75.3051Z" fill="#0E7755"/>
<path d="M106.021 69.0518H108.174C108.92 69.0518 109.21 69.0932 109.499 69.2174C110.204 69.4659 110.7 70.2114 110.7 71.1225C110.7 72.0337 110.204 72.7792 109.417 73.0276C109.417 73.0276 109.499 73.1105 109.624 73.359L111.115 76.0924H109.996L108.505 73.2761H107.014V76.0924H106.021V69.0518ZM108.423 72.4064C109.21 72.4064 109.665 71.9094 109.665 71.1225C109.665 70.5841 109.458 70.2528 109.085 70.0457C108.878 69.9629 108.671 69.8801 108.133 69.8801H107.014V72.4064H108.423Z" fill="#0E7755"/>
</svg>
