<svg width="92" height="40" viewBox="0 0 92 40" fill="none" xmlns="http://www.w3.org/2000/svg">
<path d="M50.5156 34H48.6406V28.8516H43.375V34H41.5078V22.5781H43.375V27.25H48.6406V22.5781H50.5156V34ZM60.9922 29.6641C60.9922 31.0755 60.6302 32.1771 59.9062 32.9688C59.1823 33.7604 58.1745 34.1562 56.8828 34.1562C56.0755 34.1562 55.362 33.974 54.7422 33.6094C54.1224 33.2448 53.6458 32.7214 53.3125 32.0391C52.9792 31.3568 52.8125 30.5651 52.8125 29.6641C52.8125 28.263 53.1719 27.1693 53.8906 26.3828C54.6094 25.5964 55.6224 25.2031 56.9297 25.2031C58.1797 25.2031 59.1693 25.6068 59.8984 26.4141C60.6276 27.2161 60.9922 28.2995 60.9922 29.6641ZM54.7031 29.6641C54.7031 31.6589 55.4401 32.6562 56.9141 32.6562C58.3724 32.6562 59.1016 31.6589 59.1016 29.6641C59.1016 27.6901 58.3672 26.7031 56.8984 26.7031C56.1276 26.7031 55.5677 26.9583 55.2188 27.4688C54.875 27.9792 54.7031 28.7109 54.7031 29.6641ZM66.3281 32.6719C66.776 32.6719 67.224 32.6016 67.6719 32.4609V33.8438C67.4688 33.9323 67.2057 34.0052 66.8828 34.0625C66.5651 34.125 66.2344 34.1562 65.8906 34.1562C64.151 34.1562 63.2812 33.2396 63.2812 31.4062V26.75H62.1016V25.9375L63.3672 25.2656L63.9922 23.4375H65.125V25.3594H67.5859V26.75H65.125V31.375C65.125 31.8177 65.2344 32.1458 65.4531 32.3594C65.6771 32.5677 65.9688 32.6719 66.3281 32.6719ZM73.1797 34.1562C71.8359 34.1562 70.7839 33.7656 70.0234 32.9844C69.2682 32.1979 68.8906 31.1172 68.8906 29.7422C68.8906 28.3307 69.2422 27.2214 69.9453 26.4141C70.6484 25.6068 71.6146 25.2031 72.8438 25.2031C73.9844 25.2031 74.8854 25.5495 75.5469 26.2422C76.2083 26.9349 76.5391 27.888 76.5391 29.1016V30.0938H70.7812C70.8073 30.9323 71.0339 31.5781 71.4609 32.0312C71.888 32.4792 72.4896 32.7031 73.2656 32.7031C73.776 32.7031 74.25 32.6562 74.6875 32.5625C75.1302 32.4635 75.6042 32.3021 76.1094 32.0781V33.5703C75.6615 33.7839 75.2083 33.9349 74.75 34.0234C74.2917 34.112 73.7682 34.1562 73.1797 34.1562ZM72.8438 26.5938C72.2604 26.5938 71.7917 26.7786 71.4375 27.1484C71.0885 27.5182 70.8802 28.0573 70.8125 28.7656H74.7344C74.724 28.0521 74.5521 27.513 74.2188 27.1484C73.8854 26.7786 73.4271 26.5938 72.8438 26.5938ZM80.4609 34H78.625V21.8438H80.4609V34ZM90.7578 29.6641C90.7578 31.0755 90.3958 32.1771 89.6719 32.9688C88.9479 33.7604 87.9401 34.1562 86.6484 34.1562C85.8411 34.1562 85.1276 33.974 84.5078 33.6094C83.888 33.2448 83.4115 32.7214 83.0781 32.0391C82.7448 31.3568 82.5781 30.5651 82.5781 29.6641C82.5781 28.263 82.9375 27.1693 83.6562 26.3828C84.375 25.5964 85.388 25.2031 86.6953 25.2031C87.9453 25.2031 88.9349 25.6068 89.6641 26.4141C90.3932 27.2161 90.7578 28.2995 90.7578 29.6641ZM84.4688 29.6641C84.4688 31.6589 85.2057 32.6562 86.6797 32.6562C88.138 32.6562 88.8672 31.6589 88.8672 29.6641C88.8672 27.6901 88.1328 26.7031 86.6641 26.7031C85.8932 26.7031 85.3333 26.9583 84.9844 27.4688C84.6406 27.9792 84.4688 28.7109 84.4688 29.6641Z" fill="black"/>
<path d="M11 0L21 6V40H11V0Z" fill="#F9D15C"/>
<path d="M21 16L32 21.76V40H21V16Z" fill="#222222"/>
<path d="M0 4L11 10.9677V40H0V4Z" fill="#3771C8"/>
</svg>
